<svg aria-hidden="true" style="position:absolute;width:0;height:0;overflow:hidden" xmlns="http://www.w3.org/2000/svg"><defs>
<symbol id="kda" viewBox="0 0 24 24">
<path style="fill:rgb(41.176471%,0%,60.392157%)" d="M 11.519531 8.824219 L 12.148438 9.632812 C 12.148438 9.632812 15.921875 15.125 17.8125 17.863281 C 19.113281 19.765625 20.417969 21.667969 21.722656 23.570312 C 21.824219 23.707031 21.917969 23.847656 22 23.992188 C 19.675781 24.003906 17.355469 23.996094 15.03125 23.996094 C 12.71875 20.59375 8.128906 13.769531 8.128906 13.769531 L 7.734375 13.054688 "/>
<path style="fill:rgb(41.176471%,0%,60.392157%)" d="M 6.09375 15.859375 C 6.007812 15.929688 6.015625 16.039062 6.015625 16.136719 L 5.921875 16.449219 L 5.46875 9.246094 L 6.023438 8.660156 C 6.164062 8.566406 11.660156 2.808594 14.304688 0.0703125 C 14.367188 -0.015625 14.480469 0.0078125 14.570312 0 C 16.871094 0.0078125 21.472656 0.0078125 21.472656 0.0078125 C 21.472656 0.0078125 6.765625 15.15625 6.09375 15.859375 Z M 6.09375 15.859375 "/>
<path style="fill:rgb(41.176471%,0%,60.392157%)" d="M 0 0.0078125 L 6.019531 0.0078125 L 6.019531 23.988281 L 0 23.988281 Z M 0 0.0078125 "/>
</symbol>
<symbol id="btc" viewBox="0 0 24 24">
<path style="fill:rgb(96.862745%,57.647059%,10.196078%)" d="M 23.640625 14.902344 C 22.039062 21.332031 15.527344 25.242188 9.097656 23.640625 C 2.667969 22.035156 -1.246094 15.527344 0.359375 9.097656 C 1.960938 2.671875 8.472656 -1.242188 14.902344 0.359375 C 21.332031 1.964844 25.242188 8.472656 23.640625 14.902344 Z M 23.640625 14.902344 "/>
<path style="fill:rgb(100%,100%,100%)" d="M 17.292969 10.289062 C 17.53125 8.695312 16.316406 7.835938 14.652344 7.261719 L 15.191406 5.101562 L 13.875 4.773438 L 13.351562 6.878906 C 13.003906 6.792969 12.648438 6.710938 12.292969 6.628906 L 12.824219 4.507812 L 11.507812 4.183594 L 10.96875 6.34375 C 10.679688 6.277344 10.398438 6.214844 10.125 6.144531 L 10.128906 6.140625 L 8.3125 5.6875 L 7.960938 7.09375 C 7.960938 7.09375 8.9375 7.316406 8.917969 7.328125 C 9.453125 7.464844 9.546875 7.816406 9.53125 8.097656 L 8.917969 10.558594 C 8.953125 10.570312 9 10.582031 9.054688 10.605469 C 9.011719 10.59375 8.964844 10.582031 8.914062 10.570312 L 8.054688 14.019531 C 7.988281 14.183594 7.824219 14.425781 7.449219 14.332031 C 7.464844 14.351562 6.492188 14.09375 6.492188 14.09375 L 5.839844 15.601562 L 7.554688 16.03125 C 7.871094 16.109375 8.183594 16.191406 8.492188 16.273438 L 7.949219 18.460938 L 9.261719 18.789062 L 9.800781 16.621094 C 10.160156 16.71875 10.511719 16.808594 10.851562 16.894531 L 10.3125 19.050781 L 11.632812 19.378906 L 12.175781 17.195312 C 14.421875 17.617188 16.109375 17.449219 16.820312 15.417969 C 17.394531 13.78125 16.792969 12.839844 15.609375 12.222656 C 16.472656 12.023438 17.121094 11.460938 17.292969 10.289062 Z M 14.28125 14.507812 C 13.875 16.144531 11.121094 15.261719 10.230469 15.039062 L 10.953125 12.140625 C 11.847656 12.363281 14.707031 12.804688 14.28125 14.507812 Z M 14.691406 10.265625 C 14.320312 11.753906 12.027344 11 11.285156 10.8125 L 11.941406 8.183594 C 12.683594 8.371094 15.078125 8.714844 14.691406 10.265625 Z M 14.691406 10.265625 "/>
</symbol>
<symbol id="bch" viewBox="0 0 24 24">
<path style="fill-rule:nonzero;fill:rgb(3.921569%,75.686275%,55.686275%)" d="M 24 12 C 24 18.628906 18.628906 24 12 24 C 5.371094 24 0 18.628906 0 12 C 0 5.371094 5.371094 0 12 0 C 18.628906 0 24 5.371094 24 12 Z M 24 12 "/>
<path style="fill-rule:nonzero;fill:rgb(100%,100%,100%)" d="M 15.742188 7.96875 C 15.140625 6.601562 13.753906 6.3125 12.058594 6.59375 L 11.511719 4.480469 L 10.226562 4.8125 L 10.761719 6.917969 C 10.425781 7.003906 10.078125 7.078125 9.734375 7.175781 L 9.199219 5.082031 L 7.914062 5.414062 L 8.457031 7.527344 C 8.179688 7.605469 5.863281 8.199219 5.863281 8.199219 L 6.214844 9.574219 C 6.214844 9.574219 7.160156 9.3125 7.152344 9.332031 C 7.675781 9.195312 7.921875 9.457031 8.039062 9.703125 L 9.535156 15.496094 C 9.554688 15.664062 9.523438 15.949219 9.164062 16.046875 C 9.1875 16.058594 8.230469 16.289062 8.230469 16.289062 L 8.371094 17.894531 C 8.371094 17.894531 10.664062 17.304688 10.96875 17.230469 L 11.519531 19.367188 L 12.804688 19.035156 L 12.253906 16.882812 C 12.605469 16.800781 12.949219 16.714844 13.285156 16.625 L 13.832031 18.765625 L 15.117188 18.433594 L 14.566406 16.300781 C 16.546875 15.820312 17.945312 14.570312 17.660156 12.660156 C 17.476562 11.507812 16.21875 10.566406 15.171875 10.457031 C 15.816406 9.890625 16.140625 9.058594 15.742188 7.96875 Z M 15.125 13.011719 C 15.378906 14.902344 12.753906 15.132812 11.882812 15.363281 L 11.128906 12.53125 C 12 12.304688 14.691406 11.34375 15.125 13.011719 Z M 13.542969 9.160156 C 13.8125 10.839844 11.566406 11.035156 10.839844 11.21875 L 10.152344 8.652344 C 10.878906 8.472656 12.988281 7.601562 13.542969 9.160156 Z M 13.542969 9.160156 "/>
</symbol>
<symbol id="ltc" viewBox="0 0 24 24">
<path style="fill-rule:nonzero;fill:rgb(100%,100%,100%)" d="M 22.703125 12 C 22.703125 17.910156 17.910156 22.703125 12 22.703125 C 6.089844 22.703125 1.296875 17.910156 1.296875 12 C 1.296875 6.089844 6.089844 1.296875 12 1.296875 C 17.910156 1.296875 22.703125 6.089844 22.703125 12 Z M 22.703125 12 "/>
<path style="fill-rule:nonzero;fill:rgb(20.392157%,36.470588%,61.568627%)" d="M 12 0 C 5.371094 0 0 5.371094 0 12 C 0 18.628906 5.371094 24 12 24 C 18.628906 24 24 18.628906 24 12 C 24.019531 5.390625 18.679688 0.0195312 12.070312 0 Z M 12.203125 12.40625 L 10.953125 16.621094 L 17.636719 16.621094 C 17.726562 16.617188 17.8125 16.648438 17.878906 16.710938 C 17.945312 16.769531 17.984375 16.855469 17.984375 16.945312 L 17.984375 17.054688 L 17.40625 19.058594 C 17.351562 19.253906 17.171875 19.386719 16.96875 19.378906 L 6.742188 19.378906 L 8.457031 13.539062 L 6.539062 14.121094 L 6.972656 12.785156 L 8.890625 12.203125 L 11.300781 4.007812 C 11.355469 3.816406 11.535156 3.683594 11.738281 3.691406 L 14.324219 3.691406 C 14.414062 3.6875 14.5 3.71875 14.566406 3.78125 C 14.632812 3.839844 14.671875 3.925781 14.671875 4.015625 L 14.671875 4.125 L 12.640625 11.042969 L 14.558594 10.460938 L 14.148438 11.855469 Z M 12.203125 12.40625 "/>
</symbol>
<symbol id="doge" viewBox="0 0 24 24">
<path style="stroke:none;fill-rule:nonzero;fill:#c2a633;fill-opacity:1" d="M12.29 7.578h-1.716v3.238h2.696v1.36h-2.696v3.238h1.797c.465 0 3.793.05 3.79-3.77-.005-3.82-3.231-4.066-3.872-4.066Zm0 0"/><path style="stroke:none;fill-rule:nonzero;fill:#c2a633;fill-opacity:1" d="M12 0C5.371 0 0 5.148 0 11.5S5.371 23 12 23s12-5.148 12-11.5S18.629 0 12 0Zm.473 17.71H8.125v-5.534H6.594v-1.36h1.531V5.281h3.73c.883 0 6.727-.176 6.727 6.32 0 6.602-6.11 6.11-6.11 6.11Zm0 0"/></symbol>
<symbol id="dash" viewBox="0 0 24 24">
<path style="fill-rule:nonzero;fill:rgb(0%,55.294118%,89.411765%)" d="M 15.0625 0.0117188 L 6.691406 0.0117188 L 5.996094 3.953125 L 13.554688 3.964844 C 17.277344 3.964844 18.375 5.339844 18.34375 7.613281 C 18.324219 8.78125 17.828125 10.757812 17.613281 11.398438 C 17.039062 13.105469 15.859375 15.050781 11.445312 15.046875 L 4.097656 15.039062 L 3.40625 18.988281 L 11.761719 18.988281 C 14.707031 18.988281 15.957031 18.636719 17.289062 18.019531 C 20.230469 16.628906 21.984375 13.679688 22.6875 9.828125 C 23.726562 4.089844 22.429688 0.0117188 15.0625 0.0117188 "/>
<path style="fill-rule:nonzero;fill:rgb(0%,55.294118%,89.411765%)" d="M 3.078125 7.519531 C 0.882812 7.519531 0.570312 8.972656 0.363281 9.851562 C 0.0898438 10.996094 0 11.46875 0 11.46875 L 8.574219 11.46875 C 10.769531 11.46875 11.082031 10.015625 11.289062 9.136719 C 11.5625 7.988281 11.652344 7.519531 11.652344 7.519531 Z M 3.078125 7.519531 "/>
</symbol>
<symbol id="eth" viewBox="0 0 27 24">
<path style="fill-rule:nonzero;fill:rgb(20.392157%,20.392157%,20.392157%)" d="M 7.496094 0.00390625 L 7.332031 0.550781 L 7.332031 16.414062 L 7.496094 16.574219 L 14.996094 12.222656 Z M 7.496094 0.00390625 "/>
<path style="fill-rule:nonzero;fill:rgb(54.901961%,54.901961%,54.901961%)" d="M 7.496094 0.00390625 L 0 12.222656 L 7.496094 16.574219 Z M 7.496094 0.00390625 "/>
<path style="fill-rule:nonzero;fill:rgb(23.529412%,23.529412%,23.137255%)" d="M 7.496094 17.96875 L 7.40625 18.082031 L 7.40625 23.734375 L 7.496094 23.996094 L 15 13.621094 Z M 7.496094 17.96875 "/>
<path style="fill-rule:nonzero;fill:rgb(54.901961%,54.901961%,54.901961%)" d="M 7.496094 23.996094 L 7.496094 17.96875 L 0 13.621094 Z M 7.496094 23.996094 "/>
<path style="fill-rule:nonzero;fill:rgb(7.843137%,7.843137%,7.843137%)" d="M 7.496094 16.574219 L 14.996094 12.222656 L 7.496094 8.875 Z M 7.496094 16.574219 "/>
<path style="fill-rule:nonzero;fill:rgb(22.352941%,22.352941%,22.352941%)" d="M 0 12.222656 L 7.496094 16.574219 L 7.496094 8.875 Z M 0 12.222656 "/>
</symbol>
</defs></svg>